<?xml version="1.0" standalone="no"?>
<!DOCTYPE svg PUBLIC "-//W3C//DTD SVG 20010904//EN"
 "http://www.w3.org/TR/2001/REC-SVG-20010904/DTD/svg10.dtd">
<svg version="1.0" xmlns="http://www.w3.org/2000/svg"
 width="292.000000pt" height="292.000000pt" viewBox="0 0 292.000000 292.000000"
 preserveAspectRatio="xMidYMid meet">
<metadata>
Created by potrace 1.14, written by Peter Selinger 2001-2017
</metadata>
<g transform="translate(0.000000,292.000000) scale(0.100000,-0.100000)"
fill="#000000" stroke="none">
<path d="M2487 2863 c-1 0 -92 -4 -202 -7 -491 -15 -585 -18 -666 -21 -170 -6
-216 -57 -245 -280 -4 -33 -8 -62 -9 -65 -1 -3 -7 -44 -15 -92 l-13 -88 -91
-1 c-194 -2 -322 -10 -354 -20 -47 -15 -99 -64 -112 -103 -13 -39 -14 -48 -30
-151 -7 -44 -14 -88 -16 -98 -2 -10 -8 -54 -15 -98 -6 -45 -17 -82 -23 -84 -6
-2 -89 -6 -184 -8 -172 -4 -173 -4 -215 -33 -54 -38 -83 -97 -97 -200 -6 -44
-13 -91 -15 -104 -3 -13 -7 -42 -10 -65 -3 -22 -8 -47 -10 -55 -2 -8 -6 -35
-9 -60 -3 -25 -8 -56 -11 -70 -3 -14 -8 -43 -11 -65 -2 -22 -12 -83 -20 -135
-8 -52 -17 -106 -19 -120 -5 -35 -17 -112 -20 -130 -1 -8 -6 -37 -9 -63 -4
-27 -9 -58 -12 -70 -2 -12 -6 -39 -9 -62 -3 -22 -10 -66 -16 -98 -27 -153 44
-239 206 -252 44 -3 94 -8 110 -9 17 -2 66 -6 110 -10 44 -4 100 -9 125 -11
25 -2 79 -7 120 -10 41 -3 91 -8 110 -10 19 -2 73 -7 120 -10 47 -4 96 -8 110
-10 14 -2 66 -7 115 -10 50 -4 106 -8 125 -10 19 -2 76 -6 125 -10 50 -3 103
-9 118 -11 74 -12 166 46 192 121 8 24 12 68 10 110 -5 99 -16 295 -20 328
l-3 28 87 -6 c47 -4 97 -8 111 -11 14 -2 73 -7 131 -10 94 -6 110 -4 147 15
53 27 90 76 101 134 4 26 7 48 6 49 -2 2 -6 48 -9 103 -4 55 -9 138 -12 184
l-6 83 84 -6 c45 -4 103 -9 128 -11 283 -27 282 -27 331 -2 24 12 57 39 73 60
30 38 31 41 30 145 -1 59 -4 154 -8 212 -11 155 -13 193 -21 325 -3 66 -8 143
-10 170 -2 28 -7 97 -10 155 -3 58 -8 128 -10 155 -6 64 -18 265 -17 285 0 33
-21 97 -43 126 -40 52 -86 68 -198 69 -54 0 -99 -1 -100 -2z m-1651 -1041
c-17 -16 -18 -16 -5 5 7 12 15 20 18 17 3 -2 -3 -12 -13 -22z m1331 -1027 c0
-8 -4 -12 -9 -9 -5 3 -6 10 -3 15 9 13 12 11 12 -6z m-192 -35 c-3 -5 -12 -10
-18 -10 -7 0 -6 4 3 10 19 12 23 12 15 0z"/>
</g>
</svg>
